<svg xmlns="http://www.w3.org/2000/svg" version="1.1" viewBox="0 0 504 433" width="504" height="433"><defs></defs><g><g class="start_entity" data-entity=".start." data-qualified-name=".start." id="ent0002" data-source-line="2"><circle cx="259.81" cy="16" r="10" fill="#222222" stroke="#222222" stroke-width="1"></circle></g><rect x="234.81" y="90.40" width="50" height="40" rx="12.50" ry="12.50" fill="#F1F1F1" stroke="#181818" stroke-width="0.50"></rect><text x="244.70" y="115.40" font-size="14" fill="#000000" xml:space="preserve" style="white-space: pre" font-family="sans-serif">IDLE</text><rect x="7" y="235.20" width="53.62" height="40" rx="12.50" ry="12.50" fill="#F1F1F1" stroke="#181818" stroke-width="0.50"></rect><text x="12" y="260.20" font-size="14" fill="#000000" xml:space="preserve" style="white-space: pre" font-family="sans-serif">READY</text><rect x="234.81" y="380" width="50" height="40" rx="12.50" ry="12.50" fill="#F1F1F1" stroke="#181818" stroke-width="0.50"></rect><text x="239.94" y="405" font-size="14" fill="#000000" xml:space="preserve" style="white-space: pre" font-family="sans-serif">DONE</text><g class="entity" data-entity="GMN2" data-qualified-name="GMN2" id="ent0003" data-source-line="6"><path d="M31.45,87 L31.45,133.80 A0,0 0 0 0 31.45,133.80 L200.18,133.80 A0,0 0 0 0 200.18,133.80 L200.18,114.40 L234.31,110.40 L200.18,106.40 L200.18,97 L190.18,87 L31.45,87 A0,0 0 0 0 31.45,87" fill="#FEFFDD" stroke="#181818" stroke-width="0.50"></path><path d="M190.18,87 L190.18,97 L200.18,97 L190.18,87" fill="#FEFFDD" stroke="#181818" stroke-width="0.50"></path><text x="37.45" y="106.40" font-size="13" fill="#000000" xml:space="preserve" style="white-space: pre" font-family="sans-serif">Main Thread claims slot,</text><text x="37.45" y="124.80" font-size="13" fill="#000000" xml:space="preserve" style="white-space: pre" font-family="sans-serif">writes Phase 1 payload.</text></g><g class="entity" data-entity="GMN5" data-qualified-name="GMN5" id="ent0006" data-source-line="12"><path d="M95.93,231.80 L95.93,251.20 L60.81,255.20 L95.93,259.20 L95.93,278.60 A0,0 0 0 0 95.93,278.60 L321.70,278.60 A0,0 0 0 0 321.70,278.60 L321.70,241.80 L311.70,231.80 L95.93,231.80 A0,0 0 0 0 95.93,231.80" fill="#FEFFDD" stroke="#181818" stroke-width="0.50"></path><path d="M311.70,231.80 L311.70,241.80 L321.70,241.80 L311.70,231.80" fill="#FEFFDD" stroke="#181818" stroke-width="0.50"></path><text x="101.93" y="251.20" font-size="13" fill="#000000" xml:space="preserve" style="white-space: pre" font-family="sans-serif">Servlet detects READY,</text><text x="101.93" y="269.60" font-size="13" fill="#000000" xml:space="preserve" style="white-space: pre" font-family="sans-serif">executes Phase 2 network scatter.</text></g><g class="entity" data-entity="GMN8" data-qualified-name="GMN8" id="ent0009" data-source-line="18"><path d="M13.74,376.60 L13.74,423.40 A0,0 0 0 0 13.74,423.40 L199.89,423.40 A0,0 0 0 0 199.89,423.40 L199.89,404 L234.72,400 L199.89,396 L199.89,386.60 L189.89,376.60 L13.74,376.60 A0,0 0 0 0 13.74,376.60" fill="#FEFFDD" stroke="#181818" stroke-width="0.50"></path><path d="M189.89,376.60 L189.89,386.60 L199.89,386.60 L189.89,376.60" fill="#FEFFDD" stroke="#181818" stroke-width="0.50"></path><text x="19.74" y="396.00" font-size="13" fill="#000000" xml:space="preserve" style="white-space: pre" font-family="sans-serif">Main Thread reclaims slot</text><text x="19.74" y="414.40" font-size="13" fill="#000000" xml:space="preserve" style="white-space: pre" font-family="sans-serif">for the next API invocation.</text></g><g class="link" data-entity-1=".start." data-entity-2="IDLE" data-entity-1-uid="ent0002" data-entity-2-uid="ent0003" id="lnk4" data-source-line="2" data-link-type="dependency"><path d="M259.81,26.2 C259.81,40.99 259.81,64.38 259.81,83.97" fill="none" stroke="#181818" stroke-width="1"></path><polygon points="259.81,89.97 263.81,80.97 259.81,84.97 255.81,80.97 259.81,89.97" fill="#181818" stroke="#181818" stroke-width="1"></polygon></g><g class="link" data-entity-1="IDLE" data-entity-2="READY" data-entity-1-uid="ent0003" data-entity-2-uid="ent0005" id="lnk6" data-source-line="4" data-link-type="dependency"><path d="M234.33,127.5 C191.38,154.64 110.0618,206.0143 66.0318,233.8443" fill="none" stroke="#181818" stroke-width="1"></path><polygon points="60.96,237.05 70.70,235.62 65.19,234.38 66.43,228.86 60.96,237.05" fill="#181818" stroke="#181818" stroke-width="1"></polygon><text x="210.51" y="179.20" font-size="13" fill="#000000" xml:space="preserve" style="white-space: pre" font-family="sans-serif">Main Thread</text><text x="174.70" y="197.60" font-size="13" fill="#000000" xml:space="preserve" style="white-space: pre" font-family="sans-serif">(memory_order_release)</text></g><g class="link" data-entity-1="READY" data-entity-2="DONE" data-entity-1-uid="ent0005" data-entity-2-uid="ent0007" id="lnk8" data-source-line="10" data-link-type="dependency"><path d="M61.07,273.43 C105.22,301.32 186.6376,352.7652 229.4676,379.8252" fill="none" stroke="#181818" stroke-width="1"></path><polygon points="234.54,383.03 229.07,374.84 230.31,380.36 224.79,381.60 234.54,383.03" fill="#181818" stroke="#181818" stroke-width="1"></polygon><text x="204.84" y="324.00" font-size="13" fill="#000000" xml:space="preserve" style="white-space: pre" font-family="sans-serif">Servlet Thread</text><text x="174.70" y="342.40" font-size="13" fill="#000000" xml:space="preserve" style="white-space: pre" font-family="sans-serif">(memory_order_release)</text></g><g class="link" data-entity-1="DONE" data-entity-2="IDLE" data-entity-1-uid="ent0007" data-entity-2-uid="ent0003" id="lnk9" data-source-line="16" data-link-type="dependency"><path d="M285.17,387.46 C301.37,378.67 321.25,364.96 331.81,346.6 C357.31,302.29 341.43,282.85 338.81,231.8 C337.25,201.46 346.96,190.13 331.81,163.8 C321.25,145.44 306.6437,134.5915 290.4437,125.8015" fill="none" stroke="#181818" stroke-width="1"></path><polygon points="285.17,122.94 291.17,130.75 289.56,125.32 294.99,123.72 285.17,122.94" fill="#181818" stroke="#181818" stroke-width="1"></polygon><text x="381.16" y="251.60" font-size="13" fill="#000000" xml:space="preserve" style="white-space: pre" font-family="sans-serif">Main Thread</text><text x="345.35" y="270.00" font-size="13" fill="#000000" xml:space="preserve" style="white-space: pre" font-family="sans-serif">(memory_order_release)</text></g></g></svg>