<svg xmlns="http://www.w3.org/2000/svg" version="1.1" viewBox="0 0 642 639" width="642" height="639"><defs></defs><g><path d="M19.50,7 L620.50,7 A12.50,12.50 0 0 1 633,19.50 L633,37 L7,37 L7,19.50 A12.50,12.50 0 0 1 19.50,7" fill="#F1F1F1" stroke="#F1F1F1" stroke-width="1"></path><rect x="7" y="7" width="626" height="624" rx="12.50" ry="12.50" fill="#00000000" stroke="#181818" stroke-width="0.50"></rect><line x1="7" y1="37" x2="633" y2="37" stroke="#181818" stroke-width="0.50"></line><text x="286.39" y="27" font-size="14" fill="#000000" xml:space="preserve" style="white-space: pre" font-family="sans-serif">HPC Node</text><path d="M31.50,49 L596.50,49 A12.50,12.50 0 0 1 609,61.50 L609,79 L19,79 L19,61.50 A12.50,12.50 0 0 1 31.50,49" fill="#F1F1F1" stroke="#F1F1F1" stroke-width="1"></path><rect x="19" y="49" width="590" height="160" rx="12.50" ry="12.50" fill="#00000000" stroke="#181818" stroke-width="0.50"></rect><line x1="19" y1="79" x2="609" y2="79" stroke="#181818" stroke-width="0.50"></line><text x="267.10" y="69" font-size="14" fill="#000000" xml:space="preserve" style="white-space: pre" font-family="sans-serif">NUMA Node 0</text><g class="cluster" data-entity="CPU0" data-qualified-name="HPC_NODE.NUMA_0.CPU0" id="ent0004" data-source-line="12"><path d="M43.50,91 L152.50,91 A12.50,12.50 0 0 1 165,103.50 L165,116 L31,116 L31,103.50 A12.50,12.50 0 0 1 43.50,91" fill="#F1F1F1" stroke="#F1F1F1" stroke-width="1"></path><rect x="31" y="91" width="134" height="105" rx="12.50" ry="12.50" fill="#00000000" stroke="#181818" stroke-width="0.50"></rect><line x1="31" y1="116" x2="165" y2="116" stroke="#181818" stroke-width="0.50"></line><text x="80.15" y="110" font-size="14" fill="#000000" xml:space="preserve" style="white-space: pre" font-family="sans-serif">CPU0</text></g><g class="cluster" data-entity="CPU1" data-qualified-name="HPC_NODE.NUMA_0.CPU1" id="ent0006" data-source-line="15"><path d="M463.50,91 L572.50,91 A12.50,12.50 0 0 1 585,103.50 L585,116 L451,116 L451,103.50 A12.50,12.50 0 0 1 463.50,91" fill="#F1F1F1" stroke="#F1F1F1" stroke-width="1"></path><rect x="451" y="91" width="134" height="105" rx="12.50" ry="12.50" fill="#00000000" stroke="#181818" stroke-width="0.50"></rect><line x1="451" y1="116" x2="585" y2="116" stroke="#181818" stroke-width="0.50"></line><text x="500.15" y="110" font-size="14" fill="#000000" xml:space="preserve" style="white-space: pre" font-family="sans-serif">CPU1</text></g><g class="cluster" data-entity="Mem0" data-qualified-name="HPC_NODE.NUMA_0.Mem0" id="ent0008" data-source-line="18"><path d="M258.50,96 L357.50,96 A12.50,12.50 0 0 1 370,108.50 L370,121 L246,121 L246,108.50 A12.50,12.50 0 0 1 258.50,96" fill="#FFFFFF" stroke="#FFFFFF" stroke-width="1"></path><rect x="246" y="96" width="124" height="95" rx="12.50" ry="12.50" fill="#00000000" stroke="#181818" stroke-width="0.50"></rect><line x1="246" y1="121" x2="370" y2="121" stroke="#181818" stroke-width="0.50"></line><text x="287.06" y="115" font-size="14" fill="#000000" xml:space="preserve" style="white-space: pre" font-family="sans-serif">Mem0</text></g><rect x="47.24" y="130" width="101.52" height="50" rx="12.50" ry="12.50" fill="#F1F1F1" stroke="#181818" stroke-width="0.50"></rect><text x="52.24" y="150" font-size="14" fill="#000000" xml:space="preserve" style="white-space: pre" font-family="sans-serif">CPU Core 0</text><text x="52.24" y="170" font-size="14" fill="#000000" xml:space="preserve" style="white-space: pre" font-family="sans-serif">(Main Thread)</text><rect x="467.24" y="130" width="101.52" height="50" rx="12.50" ry="12.50" fill="#F1F1F1" stroke="#181818" stroke-width="0.50"></rect><text x="472.24" y="150" font-size="14" fill="#000000" xml:space="preserve" style="white-space: pre" font-family="sans-serif">CPU Core 1</text><text x="472.24" y="170" font-size="14" fill="#000000" xml:space="preserve" style="white-space: pre" font-family="sans-serif">(Main Thread)</text><rect x="262.04" y="135" width="91.92" height="40" rx="12.50" ry="12.50" fill="#F1F1F1" stroke="#181818" stroke-width="0.50"></rect><text x="267.04" y="160" font-size="14" fill="#000000" xml:space="preserve" style="white-space: pre" font-family="sans-serif">System RAM</text><g class="link" data-entity-1="CPU0_label" data-entity-2="Mem0_label" data-entity-1-uid="ent0005" data-entity-2-uid="ent0009" id="lnk2" data-source-line="22" data-link-type="dependency"><path d="M149.1,155 C183.46,155 222.38,155 255.69,155" fill="none" stroke="#181818" stroke-width="1"></path><polygon points="261.69,155 252.69,151 256.69,155 252.69,159 261.69,155" fill="#181818" stroke="#181818" stroke-width="1"></polygon><text x="158.40" y="147.40" font-size="13" fill="#000000" xml:space="preserve" style="white-space: pre" font-family="sans-serif">memory access</text></g><g class="link" data-entity-1="Mem0_label" data-entity-2="CPU1_label" data-entity-1-uid="ent0009" data-entity-2-uid="ent0007" id="lnk4" data-source-line="23" data-link-type="dependency"><path d="M360.35,155 C393.68,155 432.63,155 466.99,155" fill="none" stroke="#181818" stroke-width="1"></path><polygon points="354.35,155 363.35,159 359.35,155 363.35,151 354.35,155" fill="#181818" stroke="#181818" stroke-width="1"></polygon><text x="363.60" y="147.40" font-size="13" fill="#000000" xml:space="preserve" style="white-space: pre" font-family="sans-serif">memory access</text></g><path d="M118,283 L510,283 A12.50,12.50 0 0 1 522.50,295.50 L522.50,313 L105.50,313 L105.50,295.50 A12.50,12.50 0 0 1 118,283" fill="#F1F1F1" stroke="#F1F1F1" stroke-width="1"></path><rect x="105.50" y="283" width="417" height="335" rx="12.50" ry="12.50" fill="#00000000" stroke="#181818" stroke-width="0.50"></rect><line x1="105.50" y1="313" x2="522.50" y2="313" stroke="#181818" stroke-width="0.50"></line><text x="267.10" y="303" font-size="14" fill="#000000" xml:space="preserve" style="white-space: pre" font-family="sans-serif">NUMA Node 1</text><g class="cluster" data-entity="CPU2" data-qualified-name="HPC_NODE.NUMA_1.CPU2" id="ent0011" data-source-line="27"><path d="M130,500 L239,500 A12.50,12.50 0 0 1 251.50,512.50 L251.50,525 L117.50,525 L117.50,512.50 A12.50,12.50 0 0 1 130,500" fill="#F1F1F1" stroke="#F1F1F1" stroke-width="1"></path><rect x="117.50" y="500" width="134" height="105" rx="12.50" ry="12.50" fill="#00000000" stroke="#181818" stroke-width="0.50"></rect><line x1="117.50" y1="525" x2="251.50" y2="525" stroke="#181818" stroke-width="0.50"></line><text x="166.65" y="519" font-size="14" fill="#000000" xml:space="preserve" style="white-space: pre" font-family="sans-serif">CPU2</text></g><g class="cluster" data-entity="CPU3" data-qualified-name="HPC_NODE.NUMA_1.CPU3" id="ent0013" data-source-line="30"><path d="M340,325 L461,325 A12.50,12.50 0 0 1 473.50,337.50 L473.50,350 L327.50,350 L327.50,337.50 A12.50,12.50 0 0 1 340,325" fill="#FF99FF" stroke="#FF99FF" stroke-width="1"></path><rect x="327.50" y="325" width="146" height="105" rx="12.50" ry="12.50" fill="#00000000" stroke="#181818" stroke-width="0.50"></rect><line x1="327.50" y1="350" x2="473.50" y2="350" stroke="#181818" stroke-width="0.50"></line><text x="382.65" y="344" font-size="14" fill="#000000" xml:space="preserve" style="white-space: pre" font-family="sans-serif">CPU3</text></g><g class="cluster" data-entity="Mem1" data-qualified-name="HPC_NODE.NUMA_1.Mem1" id="ent0015" data-source-line="33"><path d="M135,330 L234,330 A12.50,12.50 0 0 1 246.50,342.50 L246.50,355 L122.50,355 L122.50,342.50 A12.50,12.50 0 0 1 135,330" fill="#FFFFFF" stroke="#FFFFFF" stroke-width="1"></path><rect x="122.50" y="330" width="124" height="95" rx="12.50" ry="12.50" fill="#00000000" stroke="#181818" stroke-width="0.50"></rect><line x1="122.50" y1="355" x2="246.50" y2="355" stroke="#181818" stroke-width="0.50"></line><text x="163.56" y="349" font-size="14" fill="#000000" xml:space="preserve" style="white-space: pre" font-family="sans-serif">Mem1</text></g><g class="cluster" data-entity="NIC" data-qualified-name="HPC_NODE.NUMA_1.NIC" id="ent0017" data-source-line="36"><path d="M315,500 L486,500 A12.50,12.50 0 0 1 498.50,512.50 L498.50,525 L302.50,525 L302.50,512.50 A12.50,12.50 0 0 1 315,500" fill="#99FF99" stroke="#99FF99" stroke-width="1"></path><rect x="302.50" y="500" width="196" height="105" rx="12.50" ry="12.50" fill="#00000000" stroke="#181818" stroke-width="0.50"></rect><line x1="302.50" y1="525" x2="498.50" y2="525" stroke="#181818" stroke-width="0.50"></line><text x="388.32" y="519" font-size="14" fill="#000000" xml:space="preserve" style="white-space: pre" font-family="sans-serif">NIC</text></g><rect x="133.74" y="539" width="101.52" height="50" rx="12.50" ry="12.50" fill="#F1F1F1" stroke="#181818" stroke-width="0.50"></rect><text x="138.74" y="559" font-size="14" fill="#000000" xml:space="preserve" style="white-space: pre" font-family="sans-serif">CPU Core 2</text><text x="138.74" y="579" font-size="14" fill="#000000" xml:space="preserve" style="white-space: pre" font-family="sans-serif">(Main Thread)</text><rect x="343.58" y="364" width="113.83" height="50" rx="12.50" ry="12.50" fill="#F1F1F1" stroke="#181818" stroke-width="0.50"></rect><text x="348.58" y="384" font-size="14" fill="#000000" xml:space="preserve" style="white-space: pre" font-family="sans-serif">CPU Core 3</text><text x="348.58" y="404" font-size="14" fill="#000000" xml:space="preserve" style="white-space: pre" font-family="sans-serif">(Servlet Thread)</text><rect x="138.54" y="369" width="91.92" height="40" rx="12.50" ry="12.50" fill="#F1F1F1" stroke="#181818" stroke-width="0.50"></rect><text x="143.54" y="394" font-size="14" fill="#000000" xml:space="preserve" style="white-space: pre" font-family="sans-serif">System RAM</text><rect x="318.23" y="539" width="164.54" height="50" rx="12.50" ry="12.50" fill="#F1F1F1" stroke="#181818" stroke-width="0.50"></rect><text x="323.23" y="559" font-size="14" fill="#000000" xml:space="preserve" style="white-space: pre" font-family="sans-serif">Network Interface Card</text><text x="323.23" y="579" font-size="14" fill="#000000" xml:space="preserve" style="white-space: pre" font-family="sans-serif">(10 Gigabit Ethernet)</text><g class="link" data-entity-1="Mem1_label" data-entity-2="CPU2_label" data-entity-1-uid="ent0016" data-entity-2-uid="ent0012" id="lnk6" data-source-line="40" data-link-type="dependency"><path d="M184.5,415.18 C184.5,446.85 184.5,504.03 184.5,538.75" fill="none" stroke="#181818" stroke-width="1"></path><polygon points="184.50,409.18 180.50,418.18 184.50,414.18 188.50,418.18 184.50,409.18" fill="#181818" stroke="#181818" stroke-width="1"></polygon><text x="185.50" y="470.40" font-size="13" fill="#000000" xml:space="preserve" style="white-space: pre" font-family="sans-serif">memory access</text></g><g class="link" data-entity-1="Mem1_label" data-entity-2="CPU3_label" data-entity-1-uid="ent0016" data-entity-2-uid="ent0014" id="lnk8" data-source-line="41" data-link-type="dependency"><path d="M236.84,389 C269.81,389 308.32,389 343.47,389" fill="none" stroke="#181818" stroke-width="1"></path><polygon points="230.84,389 239.84,393 235.84,389 239.84,385 230.84,389" fill="#181818" stroke="#181818" stroke-width="1"></polygon><text x="240.02" y="381.40" font-size="13" fill="#000000" xml:space="preserve" style="white-space: pre" font-family="sans-serif">memory access</text></g><g class="link" data-entity-1="CPU3_label" data-entity-2="NIC_label" data-entity-1-uid="ent0014" data-entity-2-uid="ent0018" id="lnk9" data-source-line="42" data-link-type="dependency"><path d="M400.5,414.42 C400.5,447.39 400.5,499.8 400.5,532.7" fill="none" stroke="#181818" stroke-width="1"></path><polygon points="400.50,538.70 404.50,529.70 400.50,533.70 396.50,529.70 400.50,538.70" fill="#181818" stroke="#181818" stroke-width="1"></polygon><text x="409.22" y="461.40" font-size="13" fill="#000000" xml:space="preserve" style="white-space: pre" font-family="sans-serif">Direct PCIe</text><text x="401.50" y="479.80" font-size="13" fill="#000000" xml:space="preserve" style="white-space: pre" font-family="sans-serif">(Low Latency)</text></g><g class="link" data-entity-1="NUMA_0" data-entity-2="NUMA_1" data-entity-1-uid="ent0003" data-entity-2-uid="ent0010" id="lnk10" data-source-line="45" data-link-type="dependency"><path d="M314,209.39 C314,231.84 314,251.16 314,276.72" fill="none" stroke="#181818" stroke-width="1"></path><polygon points="314,282.72 318,273.72 314,277.72 310,273.72 314,282.72" fill="#181818" stroke="#181818" stroke-width="1"></polygon><text x="319.61" y="242.40" font-size="13" fill="#000000" xml:space="preserve" style="white-space: pre" font-family="sans-serif">Interconnect</text><text x="315" y="260.80" font-size="13" fill="#000000" xml:space="preserve" style="white-space: pre" font-family="sans-serif">(High Latency)</text></g></g></svg>